<svg width="36" height="29" viewBox="0 0 36 29" fill="none" xmlns="http://www.w3.org/2000/svg">
<path d="M4.66659 17.5L3.85825 17.7017C3.13712 17.8819 2.49693 18.2981 2.03943 18.8839C1.58192 19.4697 1.33336 20.1917 1.33325 20.935V24.0634C1.33336 24.8067 1.58192 25.5286 2.03943 26.1145C2.49693 26.7003 3.13712 27.1164 3.85825 27.2967L6.75825 28.0234C6.90589 28.0601 7.05996 28.0627 7.20875 28.0309C7.35754 27.9992 7.49712 27.9339 7.61686 27.84C7.7366 27.7461 7.83334 27.6262 7.89972 27.4893C7.9661 27.3524 8.00037 27.2022 7.99992 27.05V17.945C7.99993 17.793 7.96527 17.6429 7.89857 17.5063C7.83188 17.3697 7.7349 17.25 7.61503 17.1565C7.49515 17.063 7.35553 16.998 7.20678 16.9666C7.05802 16.9351 6.90406 16.938 6.75659 16.975L4.66659 17.5ZM4.66659 17.5V16.6667C4.66659 8.38335 10.6366 1.66669 17.9999 1.66669C25.3633 1.66669 31.3333 8.38335 31.3333 16.6667V17.5M31.3333 17.5L32.1416 17.7017C32.8627 17.8819 33.5029 18.2981 33.9604 18.8839C34.4179 19.4697 34.6665 20.1917 34.6666 20.935V24.0634C34.6665 24.8067 34.4179 25.5286 33.9604 26.1145C33.5029 26.7003 32.8627 27.1164 32.1416 27.2967L29.2416 28.0234C29.094 28.0601 28.9399 28.0627 28.7911 28.0309C28.6423 27.9992 28.5027 27.9339 28.383 27.84C28.2632 27.7461 28.1665 27.6262 28.1001 27.4893C28.0337 27.3524 27.9995 27.2022 27.9999 27.05V17.945C28 17.7932 28.0346 17.6433 28.1012 17.5068C28.1678 17.3703 28.2646 17.2508 28.3843 17.1573C28.504 17.0638 28.6434 16.9988 28.7919 16.9673C28.9404 16.9357 29.0942 16.9383 29.2416 16.975L31.3333 17.5Z" stroke="#4E4E4E" stroke-width="1.5" stroke-linecap="round" stroke-linejoin="round"/>
</svg>
