<svg width="30" height="30" viewBox="0 0 30 30" fill="none" xmlns="http://www.w3.org/2000/svg">
<path d="M15 21L15 21.75L15 21ZM21 15L21.75 15L21 15ZM15 9L15 8.25L15 9ZM9 15L8.25 15L9 15ZM9 1.5V0.75V1.5ZM22.695 6.26051C22.4164 6.56702 22.439 7.04135 22.7455 7.31997C23.052 7.59859 23.5264 7.57599 23.805 7.26949L22.695 6.26051ZM23.82 7.25299C24.0986 6.94648 24.076 6.47215 23.7695 6.19353C23.463 5.91491 22.9886 5.93751 22.71 6.24401L23.82 7.25299ZM15 21.75C16.7902 21.75 18.5071 21.0388 19.773 19.773L18.7123 18.7123C17.7277 19.6969 16.3924 20.25 15 20.25L15 21.75ZM19.773 19.773C21.0388 18.5071 21.75 16.7902 21.75 15L20.25 15C20.25 16.3924 19.6969 17.7277 18.7123 18.7123L19.773 19.773ZM21.75 15C21.75 13.2098 21.0388 11.4929 19.773 10.227L18.7123 11.2877C19.6969 12.2723 20.25 13.6076 20.25 15L21.75 15ZM19.773 10.227C18.5071 8.96116 16.7902 8.25 15 8.25L15 9.75C16.3924 9.75 17.7277 10.3031 18.7123 11.2877L19.773 10.227ZM15 8.25C13.2098 8.25 11.4929 8.96116 10.227 10.227L11.2877 11.2877C12.2723 10.3031 13.6076 9.75 15 9.75L15 8.25ZM10.227 10.227C8.96116 11.4929 8.25 13.2098 8.25 15L9.75 15C9.75 13.6076 10.3031 12.2723 11.2877 11.2877L10.227 10.227ZM8.25 15C8.25 16.7902 8.96116 18.5071 10.227 19.773L11.2877 18.7123C10.3031 17.7277 9.75 16.3924 9.75 15L8.25 15ZM10.227 19.773C11.4929 21.0388 13.2098 21.75 15 21.75L15 20.25C13.6076 20.25 12.2723 19.6969 11.2877 18.7123L10.227 19.773ZM2.25 21V9H0.75V21H2.25ZM2.25 9C2.25 7.20979 2.96116 5.4929 4.22703 4.22703L3.16637 3.16637C1.61919 4.71354 0.75 6.81196 0.75 9H2.25ZM4.22703 4.22703C5.4929 2.96116 7.20979 2.25 9 2.25V0.75C6.81196 0.75 4.71354 1.61919 3.16637 3.16637L4.22703 4.22703ZM9 2.25H21V0.75H9V2.25ZM21 2.25C22.7902 2.25 24.5071 2.96116 25.773 4.22703L26.8336 3.16637C25.2865 1.61919 23.188 0.75 21 0.75V2.25ZM25.773 4.22703C27.0388 5.4929 27.75 7.20979 27.75 9H29.25C29.25 6.81196 28.3808 4.71354 26.8336 3.16637L25.773 4.22703ZM27.75 9V21H29.25V9H27.75ZM27.75 21C27.75 22.7902 27.0388 24.5071 25.773 25.773L26.8336 26.8336C28.3808 25.2865 29.25 23.188 29.25 21H27.75ZM25.773 25.773C24.5071 27.0388 22.7902 27.75 21 27.75V29.25C23.188 29.25 25.2865 28.3808 26.8336 26.8336L25.773 25.773ZM21 27.75H9V29.25H21V27.75ZM9 27.75C7.20979 27.75 5.4929 27.0388 4.22703 25.773L3.16637 26.8336C4.71354 28.3808 6.81196 29.25 9 29.25V27.75ZM4.22703 25.773C2.96116 24.5071 2.25 22.7902 2.25 21H0.75C0.75 23.188 1.61919 25.2865 3.16637 26.8336L4.22703 25.773ZM23.805 7.26949L23.82 7.25299L22.71 6.24401L22.695 6.26051L23.805 7.26949Z" fill="white"/>
</svg>
