<svg width="23" height="23" viewBox="0 0 23 23" fill="none" xmlns="http://www.w3.org/2000/svg">
<path fill-rule="evenodd" clip-rule="evenodd" d="M4.59562 2.08105C6.09441 1.0796 7.8565 0.545074 9.65907 0.545074C12.0762 0.545228 14.3943 1.50549 16.1035 3.21465C17.8126 4.9238 18.7729 7.24187 18.773 9.65898C18.773 11.4616 18.2385 13.2237 17.2371 14.7225C16.2356 16.2213 14.8122 17.3894 13.1468 18.0792C11.4815 18.7691 9.64896 18.9495 7.88102 18.5979C6.11309 18.2462 4.48914 17.3782 3.21453 16.1036C1.93992 14.829 1.0719 13.205 0.720231 11.4371C0.368567 9.66915 0.549054 7.83663 1.23887 6.17127C1.92868 4.50591 3.09684 3.08251 4.59562 2.08105ZM9.65902 2.20491C8.18475 2.20492 6.74359 2.6421 5.51778 3.46116C4.29196 4.28023 3.33654 5.4444 2.77236 6.80647C2.20817 8.16853 2.06055 9.6673 2.34817 11.1133C2.63579 12.5592 3.34573 13.8874 4.38821 14.9299C5.43069 15.9724 6.75888 16.6823 8.20484 16.9699C9.6508 17.2575 11.1496 17.1099 12.5116 16.5457C13.8737 15.9816 15.0379 15.0261 15.8569 13.8003C16.676 12.5745 17.1132 11.1334 17.1132 9.65909M9.65902 2.20491C11.6359 2.20505 13.5319 2.99044 14.9298 4.38833C16.3277 5.78622 17.1131 7.68217 17.1132 9.65909" fill="black"/>
<path fill-rule="evenodd" clip-rule="evenodd" d="M15.2527 15.2527C15.5768 14.9286 16.1023 14.9286 16.4264 15.2527L22.2119 21.0382C22.536 21.3623 22.536 21.8877 22.2119 22.2118C21.8878 22.5359 21.3623 22.5359 21.0382 22.2118L15.2527 16.4263C14.9286 16.1022 14.9286 15.5768 15.2527 15.2527Z" fill="black"/>
</svg>
