<svg width="32" height="24" viewBox="0 0 32 24" fill="none" xmlns="http://www.w3.org/2000/svg">
<path d="M19 12.0001L19.3721 12.6513C19.6058 12.5177 19.75 12.2692 19.75 12.0001C19.75 11.731 19.6058 11.4824 19.3721 11.3489L19 12.0001ZM13.75 15.0001H13C13 15.2675 13.1423 15.5146 13.3736 15.6488C13.6048 15.783 13.89 15.7839 14.1221 15.6513L13.75 15.0001ZM13.75 9.0001L14.1221 8.34891C13.89 8.21627 13.6048 8.21722 13.3736 8.35141C13.1423 8.48561 13 8.73274 13 9.0001H13.75ZM2.3575 3.0271L1.81972 2.50432L1.81971 2.50433L2.3575 3.0271ZM10.132 1.4476L10.1109 0.697895L10.1107 0.6979L10.132 1.4476ZM21.868 1.4476L21.8893 0.6979L21.8891 0.697894L21.868 1.4476ZM29.6425 20.9731L30.18 21.4962L30.1806 21.4956L29.6425 20.9731ZM21.868 22.5511L21.847 21.8014L21.8463 21.8014L21.868 22.5511ZM10.132 22.5511L10.1536 21.8014L10.153 21.8014L10.132 22.5511ZM18.6279 11.3489L13.3779 14.3489L14.1221 15.6513L19.3721 12.6513L18.6279 11.3489ZM14.5 15.0001V9.0001H13V15.0001H14.5ZM13.3779 9.65128L18.6279 12.6513L19.3721 11.3489L14.1221 8.34891L13.3779 9.65128ZM1.75 13.0621V10.9381H0.25V13.0621H1.75ZM1.75 10.9381C1.75 8.74578 1.75159 7.17666 1.91298 5.97792C2.07127 4.8022 2.37161 4.08859 2.89529 3.54987L1.81971 2.50433C0.985889 3.36211 0.607478 4.43275 0.426394 5.77778C0.248408 7.09979 0.25 8.78792 0.25 10.9381H1.75ZM2.89528 3.54987C3.42139 3.00867 4.12053 2.68922 5.27306 2.49861C6.45012 2.30395 7.99371 2.25865 10.1533 2.1973L10.1107 0.6979C7.99379 0.758044 6.32963 0.803499 5.02831 1.01871C3.70247 1.23798 2.65261 1.64753 1.81972 2.50432L2.89528 3.54987ZM10.1531 2.1973C12.1748 2.14039 14.237 2.1001 16 2.1001V0.600098C14.217 0.600098 12.1392 0.640801 10.1109 0.697895L10.1531 2.1973ZM16 2.1001C17.763 2.1001 19.8237 2.14039 21.8469 2.1973L21.8891 0.697894C19.8593 0.640801 17.783 0.600098 16 0.600098V2.1001ZM21.8467 2.1973C24.0063 2.25865 25.5499 2.30395 26.7267 2.49861C27.8791 2.68921 28.5777 3.00863 29.1029 3.54958L30.1791 2.50462C29.3468 1.64757 28.2972 1.23798 26.9715 1.01871C25.6704 0.803498 24.0062 0.758044 21.8893 0.6979L21.8467 2.1973ZM29.1029 3.54958C29.627 4.08927 29.9277 4.80362 30.0863 5.97926C30.248 7.17791 30.25 8.74667 30.25 10.9381H31.75C31.75 8.78852 31.7512 7.10078 31.5728 5.77868C31.3913 4.43357 31.0125 3.36292 30.1791 2.50462L29.1029 3.54958ZM30.25 10.9381V13.0606H31.75V10.9381H30.25ZM30.25 13.0606C30.25 15.2537 30.2484 16.8228 30.087 18.0215C29.9287 19.1971 29.6284 19.911 29.1044 20.4506L30.1806 21.4956C31.0141 20.6372 31.3925 19.5668 31.5736 18.2217C31.7516 16.8997 31.75 15.2115 31.75 13.0606H30.25ZM29.105 20.45C28.5788 20.9908 27.8798 21.3102 26.7275 21.5008C25.5507 21.6955 24.0071 21.7408 21.847 21.8014L21.889 23.3008C24.0069 23.2414 25.671 23.196 26.9723 22.9807C28.298 22.7614 29.3472 22.3519 30.18 21.4962L29.105 20.45ZM21.8463 21.8014C19.8251 21.8598 17.763 21.9001 16 21.9001V23.4001C17.783 23.4001 19.8609 23.3594 21.8897 23.3008L21.8463 21.8014ZM16 21.9001C14.237 21.9001 12.1764 21.8598 10.1536 21.8014L10.1104 23.3008C12.1406 23.3594 14.217 23.4001 16 23.4001V21.9001ZM10.153 21.8014C7.99351 21.7408 6.44994 21.6959 5.27295 21.5014C4.12049 21.311 3.42138 20.9915 2.89528 20.4503L1.81972 21.4959C2.65262 22.3527 3.70251 22.7622 5.02842 22.9813C6.32981 23.1963 7.99399 23.2414 10.111 23.3008L10.153 21.8014ZM2.89528 20.4503C2.37086 19.9109 2.07053 19.1969 1.91243 18.0213C1.75122 16.8225 1.75 15.2538 1.75 13.0621H0.25C0.25 15.2114 0.248031 16.8992 0.425817 18.2212C0.606716 19.5663 0.985145 20.6373 1.81972 21.4959L2.89528 20.4503Z" fill="white"/>
</svg>
