<svg width="24" height="23" viewBox="0 0 24 23" fill="none" xmlns="http://www.w3.org/2000/svg">
<path d="M23.2569 21.1875C21.5911 18.3076 19.0241 16.2426 16.0283 15.2637C17.5101 14.3816 18.6614 13.0374 19.3054 11.4376C19.9493 9.83776 20.0503 8.0708 19.5929 6.40803C19.1354 4.74526 18.1448 3.27863 16.7731 2.23337C15.4014 1.18811 13.7245 0.622009 12 0.622009C10.2754 0.622009 8.59857 1.18811 7.22689 2.23337C5.85522 3.27863 4.86458 4.74526 4.40711 6.40803C3.94965 8.0708 4.05065 9.83776 4.6946 11.4376C5.33856 13.0374 6.48986 14.3816 7.97171 15.2637C4.97593 16.2415 2.4089 18.3065 0.743116 21.1875C0.682029 21.2871 0.64151 21.3979 0.623951 21.5134C0.606391 21.629 0.612146 21.7468 0.640877 21.8601C0.669607 21.9733 0.720731 22.0797 0.791232 22.1729C0.861733 22.2661 0.950182 22.3442 1.05136 22.4026C1.15254 22.4611 1.2644 22.4986 1.38034 22.5132C1.49628 22.5277 1.61396 22.5188 1.72642 22.4871C1.83888 22.4554 1.94386 22.4015 2.03515 22.3286C2.12644 22.2556 2.2022 22.1652 2.25796 22.0625C4.31858 18.5012 7.96077 16.375 12 16.375C16.0392 16.375 19.6814 18.5012 21.742 22.0625C21.7978 22.1652 21.8735 22.2556 21.9648 22.3286C22.0561 22.4015 22.1611 22.4554 22.2736 22.4871C22.386 22.5188 22.5037 22.5277 22.6196 22.5132C22.7356 22.4986 22.8474 22.4611 22.9486 22.4026C23.0498 22.3442 23.1382 22.2661 23.2087 22.1729C23.2792 22.0797 23.3304 21.9733 23.3591 21.8601C23.3878 21.7468 23.3936 21.629 23.376 21.5134C23.3585 21.3979 23.318 21.2871 23.2569 21.1875ZM5.87499 8.49998C5.87499 7.28857 6.23422 6.10437 6.90724 5.09712C7.58026 4.08987 8.53686 3.30481 9.65605 2.84122C10.7753 2.37764 12.0068 2.25634 13.1949 2.49267C14.3831 2.72901 15.4744 3.31236 16.331 4.16896C17.1876 5.02555 17.771 6.11692 18.0073 7.30506C18.2436 8.49319 18.1223 9.72472 17.6588 10.8439C17.1952 11.9631 16.4101 12.9197 15.4029 13.5927C14.3956 14.2658 13.2114 14.625 12 14.625C10.3761 14.6232 8.81916 13.9774 7.67088 12.8291C6.5226 11.6808 5.87673 10.1239 5.87499 8.49998Z" fill="black"/>
</svg>
