<svg width="22" height="18" viewBox="0 0 22 18" fill="none" xmlns="http://www.w3.org/2000/svg">
<path d="M3 10.5L2.515 10.621C2.08232 10.7292 1.69821 10.9788 1.4237 11.3303C1.1492 11.6818 1.00007 12.115 1 12.561V14.438C1.00007 14.884 1.1492 15.3172 1.4237 15.6687C1.69821 16.0202 2.08232 16.2698 2.515 16.378L4.255 16.814C4.34358 16.8361 4.43603 16.8376 4.5253 16.8186C4.61457 16.7995 4.69832 16.7603 4.77016 16.704C4.84201 16.6477 4.90005 16.5757 4.93988 16.4936C4.97971 16.4114 5.00027 16.3213 5 16.23V10.767C5.00001 10.6758 4.97921 10.5857 4.93919 10.5038C4.89918 10.4218 4.84099 10.35 4.76907 10.2939C4.69714 10.2378 4.61337 10.1988 4.52412 10.1799C4.43486 10.1611 4.34248 10.1628 4.254 10.185L3 10.5ZM3 10.5V10C3 5.03 6.582 1 11 1C15.418 1 19 5.03 19 10V10.5M19 10.5L19.485 10.621C19.9177 10.7292 20.3018 10.9788 20.5763 11.3303C20.8508 11.6818 20.9999 12.115 21 12.561V14.438C20.9999 14.884 20.8508 15.3172 20.5763 15.6687C20.3018 16.0202 19.9177 16.2698 19.485 16.378L17.745 16.814C17.6564 16.8361 17.564 16.8376 17.4747 16.8186C17.3854 16.7995 17.3017 16.7603 17.2298 16.704C17.158 16.6477 17.0999 16.5757 17.0601 16.4936C17.0203 16.4114 16.9997 16.3213 17 16.23V10.767C17 10.6759 17.0208 10.586 17.0608 10.5041C17.1007 10.4222 17.1588 10.3505 17.2306 10.2944C17.3024 10.2383 17.3861 10.1993 17.4752 10.1803C17.5643 10.1614 17.6566 10.163 17.745 10.185L19 10.5Z" stroke="#4E4E4E" stroke-width="1.5" stroke-linecap="round" stroke-linejoin="round"/>
</svg>
